<?xml version="1.0" encoding="utf-8"?>
<!-- Generator: Adobe Illustrator 16.0.0, SVG Export Plug-In . SVG Version: 6.00 Build 0)  -->
<!DOCTYPE svg PUBLIC "-//W3C//DTD SVG 1.1//EN" "http://www.w3.org/Graphics/SVG/1.1/DTD/svg11.dtd">
<svg version="1.1" id="Layer_1" xmlns="http://www.w3.org/2000/svg" xmlns:xlink="http://www.w3.org/1999/xlink" x="0px" y="0px"
	 width="539.56px" height="536.945px" viewBox="0 0 539.56 536.945" enable-background="new 0 0 539.56 536.945"
	 xml:space="preserve">
<g>
	<path fill="#F9F9F9" d="M536.63,141.216c-7.574,16.975-27.494,24.598-44.471,17.028c-17-7.574-24.621-27.493-17.049-44.469
		c7.57-16.987,27.492-24.624,44.479-17.038C536.566,104.307,544.212,124.216,536.63,141.216z"/>
	<path fill="#F9F9F9" d="M310.726,305.469c-11.672,26.21-42.393,37.97-68.582,26.288c-26.198-11.672-37.971-42.381-26.274-68.579
		c11.672-26.2,42.381-37.96,68.577-26.288C310.623,248.574,322.408,279.282,310.726,305.469z"/>
	<path fill-rule="evenodd" clip-rule="evenodd" fill="#F9F9F9" d="M235.592,114.48C114.17,144.929,65.566,293.776,147.581,384.201
		c55.999,61.736,150.288,60.886,204.043-1.646c41.16-47.889,28.068-128.254-25.918-159.076
		c-36.486-20.809-86.579-7.553-107.498,28.487c-11.261,19.367-8.75,45.727,5.622,60.497c6.638,6.818,14.121,7.938,22.269,3.438
		c8.659-4.791,11.323-13.402,6.557-20.894c-8.53-13.465-6.405-24.331,4.483-34.285c13.311-12.144,28.75-15.211,45.506-8.203
		c28.313,11.891,44.148,46.541,35.82,77.649c-10.967,40.968-52.871,68.564-96.904,63.785c-77.636-8.389-124.37-99.196-87.14-169.3
		c30.76-57.904,83.539-87.601,144.739-81.388c64.762,6.571,121.938,54.42,140.104,116.594c0.447,1.551,0.691,2.154,1.102,5.154
		h36.588C452.205,155.015,346.357,86.693,235.592,114.48z"/>
	<path fill-rule="evenodd" clip-rule="evenodd" fill="#F9F9F9" d="M425.849,395.015c-4.418,10-9.285,17.283-15.152,26.045
		c-49.156,74.188-155.388,102.472-245.001,62.333l-26.545,26.563c64.798,33.258,141.5,36.683,210.847,5.236
		c54.141-24.549,94.906-68.177,116.156-120.177H425.849z"/>
	<path fill="#F9F9F9" d="M483.324,341.558c-7.572,16.974-27.494,24.596-44.471,17.024c-16.986-7.569-24.621-27.477-17.063-44.469
		c7.584-16.985,27.506-24.62,44.48-17.036C483.259,304.648,490.894,324.556,483.324,341.558z"/>
	<path fill="#F9F9F9" d="M127.93,471.407c-7.569,16.976-27.493,24.597-44.467,17.026c-16.987-7.571-24.624-27.479-17.053-44.466
		c7.582-16.987,27.491-24.625,44.479-17.041C127.866,434.501,135.512,454.408,127.93,471.407z"/>
	<path fill-rule="evenodd" clip-rule="evenodd" fill="#F9F9F9" d="M442.173,84.758l21.547-21.547
		c-2.957-7.726-11.543-12.608-19.305-17.603C320.121-34.371,152.359-6.343,59.939,107.602
		c-73.139,90.138-79.581,218.877-18.024,314.075l25.879-25.864c-42.51-71.435-44.686-164.867,1.204-239.018
		C144.968,34.025,302.902-1.741,424.57,76.172C431.128,80.389,436.998,83.196,442.173,84.758z"/>
</g>
</svg>
