<svg xmlns="http://www.w3.org/2000/svg" width="495.398" height="495.398" viewBox="0 0 495.398 495.398"><path d="M487.083 225.514l-75.08-75.08v-86.73c0-15.682-12.708-28.39-28.413-28.39-15.67 0-28.377 12.708-28.377 28.39v29.94L299.31 37.74c-27.64-27.624-75.694-27.575-103.27.05L8.312 225.514c-11.082 11.104-11.082 29.07 0 40.158 11.087 11.1 29.09 11.1 40.172 0l187.71-187.73c6.115-6.082 16.893-6.082 22.976-.017l187.742 187.747c5.567 5.55 12.825 8.312 20.08 8.312 7.272 0 14.542-2.764 20.092-8.312 11.086-11.086 11.086-29.053 0-40.158z"/><path d="M257.56 131.836c-5.453-5.45-14.284-5.45-19.722 0L72.712 296.913c-2.607 2.606-4.085 6.164-4.085 9.877v120.4c0 28.254 22.908 51.16 51.16 51.16h81.754V351.74h92.3v126.61h81.755c28.25 0 51.16-22.906 51.16-51.158V306.79c0-3.713-1.466-7.27-4.086-9.877L257.56 131.836z"/></svg>