<?xml version="1.0" encoding="utf-8"?>
<!-- Generator: Adobe Illustrator 16.0.0, SVG Export Plug-In . SVG Version: 6.00 Build 0)  -->
<!DOCTYPE svg PUBLIC "-//W3C//DTD SVG 1.1//EN" "http://www.w3.org/Graphics/SVG/1.1/DTD/svg11.dtd">
<svg version="1.1" id="Layer_1" xmlns="http://www.w3.org/2000/svg" xmlns:xlink="http://www.w3.org/1999/xlink" x="0px" y="0px"
	 width="249.14px" height="255.845px" viewBox="0 0 249.14 255.845" enable-background="new 0 0 249.14 255.845"
	 xml:space="preserve">
<g>
	<path fill="#FFFFFF" d="M149.513,145.578c-5.563,12.491-20.203,18.096-32.683,12.528c-12.486-5.563-18.096-20.197-12.522-32.683
		c5.562-12.486,20.197-18.091,32.682-12.528C149.464,118.463,155.08,133.098,149.513,145.578z"/>
	<path fill="#FFFFFF" d="M247.743,61.299c-3.609,8.09-13.104,11.723-21.193,8.115c-8.102-3.609-11.734-13.103-8.125-21.192
		c3.607-8.096,13.102-11.735,21.197-8.12C247.712,43.709,251.356,53.198,247.743,61.299z"/>
	<path fill-rule="evenodd" clip-rule="evenodd" fill="#FFFFFF" d="M112.277,54.469c-57.867,14.512-81.03,85.492-41.943,128.586
		c26.687,29.422,71.623,29.039,97.241-0.762c19.616-22.822,13.377-61.111-12.352-75.801c-17.389-9.916-41.26-3.594-51.23,13.582
		c-5.367,9.229-4.17,21.795,2.68,28.834c3.164,3.249,6.729,3.784,10.612,1.64c4.127-2.283,5.396-6.387,3.125-9.957
		c-4.066-6.417-3.053-11.595,2.137-16.339c6.343-5.787,13.701-7.249,21.686-3.909c13.493,5.667,21.04,22.181,17.071,37.006
		c-5.227,19.524-25.197,32.676-46.182,30.398c-36.999-3.998-59.271-47.274-41.528-80.684c14.659-27.596,39.813-41.748,68.979-38.787
		c30.863,3.132,58.112,25.847,66.77,55.478c0.213,0.738,0.329,1.367,0.524,2.367h17.438
		C215.508,74.122,165.064,41.227,112.277,54.469z"/>
	<path fill-rule="evenodd" clip-rule="evenodd" fill="#FFFFFF" d="M202.948,188.122c-2.105,5-4.426,8.303-7.222,12.479
		c-23.427,35.355-74.054,48.867-116.76,29.738l-12.651,12.676c30.881,15.85,67.435,17.424,100.483,2.438
		c25.802-11.699,45.229-32.33,55.357-57.33H202.948z"/>
	<path fill="#FFFFFF" d="M230.339,162.777c-3.609,8.089-13.104,11.722-21.193,8.113c-8.096-3.607-11.734-13.095-8.132-21.192
		c3.614-8.095,13.108-11.733,21.198-8.119C230.308,145.187,233.946,154.674,230.339,162.777z"/>
	<path fill="#FFFFFF" d="M60.967,226.089c-3.607,8.09-13.102,11.722-21.191,8.114c-8.096-3.608-11.735-13.096-8.127-21.191
		c3.614-8.096,13.102-11.735,21.198-8.121C60.938,208.5,64.582,217.988,60.967,226.089z"/>
	<path fill-rule="evenodd" clip-rule="evenodd" fill="#FFFFFF" d="M206.165,38.511l12.856-11.44
		c-1.917-2.064-4.665-3.687-7.226-5.334C152.561-16.38,72.611-3.023,28.566,51.28C-6.29,94.237-9.361,155.59,19.976,200.959
		l12.333-12.326c-20.258-34.044-21.296-78.571,0.574-113.909C69.088,16.215,144.354-0.83,202.338,36.301
		C203.675,37.161,204.948,37.891,206.165,38.511z"/>
</g>
</svg>
